<svg xmlns="http://www.w3.org/2000/svg" xmlns:xlink="http://www.w3.org/1999/xlink" width="400" zoomAndPan="magnify" viewBox="0 0 300 299.999988" height="400" preserveAspectRatio="xMidYMid meet" version="1.0"><defs><g/></defs><rect x="-30" width="360" fill="#ffffff" y="-29.999999" height="359.999986" fill-opacity="1"/><rect x="-30" width="360" fill="#ffffff" y="-29.999999" height="359.999986" fill-opacity="1"/><rect x="-30" width="360" fill="#ffffff" y="-29.999999" height="359.999986" fill-opacity="1"/><g fill="#000000" fill-opacity="1"><g transform="translate(11.501221, 56.815736)"><g><path d="M 16.890625 0 L 9.890625 0 L 9.890625 -27.1875 L 0.921875 -27.1875 L 0.921875 -33.015625 L 25.859375 -33.015625 L 25.859375 -27.1875 L 16.890625 -27.1875 Z M 16.890625 0 "/></g></g><g transform="translate(38.28196, 56.815736)"><g><path d="M 10.5 -35.140625 L 10.5 -27.984375 C 10.5 -26.734375 10.457031 -25.539062 10.375 -24.40625 C 10.289062 -23.28125 10.226562 -22.484375 10.1875 -22.015625 L 10.546875 -22.015625 C 11.085938 -22.890625 11.726562 -23.597656 12.46875 -24.140625 C 13.21875 -24.679688 14.046875 -25.078125 14.953125 -25.328125 C 15.859375 -25.585938 16.828125 -25.71875 17.859375 -25.71875 C 19.679688 -25.71875 21.269531 -25.394531 22.625 -24.75 C 23.976562 -24.113281 25.03125 -23.113281 25.78125 -21.75 C 26.539062 -20.394531 26.921875 -18.632812 26.921875 -16.46875 L 26.921875 0 L 20.03125 0 L 20.03125 -14.75 C 20.03125 -16.550781 19.695312 -17.910156 19.03125 -18.828125 C 18.375 -19.753906 17.351562 -20.21875 15.96875 -20.21875 C 14.582031 -20.21875 13.488281 -19.894531 12.6875 -19.25 C 11.894531 -18.613281 11.332031 -17.671875 11 -16.421875 C 10.664062 -15.179688 10.5 -13.664062 10.5 -11.875 L 10.5 0 L 3.609375 0 L 3.609375 -35.140625 Z M 10.5 -35.140625 "/></g></g><g transform="translate(68.675615, 56.815736)"><g><path d="M 14.03125 -25.71875 C 16.363281 -25.71875 18.367188 -25.269531 20.046875 -24.375 C 21.734375 -23.476562 23.035156 -22.179688 23.953125 -20.484375 C 24.878906 -18.785156 25.34375 -16.707031 25.34375 -14.25 L 25.34375 -10.90625 L 9.0625 -10.90625 C 9.132812 -8.96875 9.710938 -7.441406 10.796875 -6.328125 C 11.890625 -5.222656 13.410156 -4.671875 15.359375 -4.671875 C 16.960938 -4.671875 18.4375 -4.835938 19.78125 -5.171875 C 21.125 -5.503906 22.503906 -6 23.921875 -6.65625 L 23.921875 -1.328125 C 22.671875 -0.710938 21.363281 -0.265625 20 0.015625 C 18.632812 0.304688 16.984375 0.453125 15.046875 0.453125 C 12.515625 0.453125 10.269531 -0.0078125 8.3125 -0.9375 C 6.363281 -1.875 4.835938 -3.296875 3.734375 -5.203125 C 2.628906 -7.117188 2.078125 -9.53125 2.078125 -12.4375 C 2.078125 -15.394531 2.578125 -17.851562 3.578125 -19.8125 C 4.578125 -21.78125 5.972656 -23.253906 7.765625 -24.234375 C 9.554688 -25.222656 11.644531 -25.71875 14.03125 -25.71875 Z M 14.0625 -20.828125 C 12.726562 -20.828125 11.617188 -20.394531 10.734375 -19.53125 C 9.859375 -18.675781 9.351562 -17.328125 9.21875 -15.484375 L 18.875 -15.484375 C 18.863281 -16.515625 18.679688 -17.425781 18.328125 -18.21875 C 17.972656 -19.019531 17.441406 -19.65625 16.734375 -20.125 C 16.035156 -20.59375 15.144531 -20.828125 14.0625 -20.828125 Z M 14.0625 -20.828125 "/></g></g></g><g fill="#000000" fill-opacity="1"><g transform="translate(11.501221, 120.403057)"><g><path d="M 23.640625 -9.171875 C 23.640625 -7.210938 23.164062 -5.507812 22.21875 -4.0625 C 21.269531 -2.613281 19.890625 -1.5 18.078125 -0.71875 C 16.265625 0.0625 14.0625 0.453125 11.46875 0.453125 C 10.320312 0.453125 9.203125 0.375 8.109375 0.21875 C 7.023438 0.0703125 5.984375 -0.144531 4.984375 -0.4375 C 3.984375 -0.726562 3.03125 -1.09375 2.125 -1.53125 L 2.125 -8.046875 C 3.6875 -7.347656 5.3125 -6.71875 7 -6.15625 C 8.6875 -5.601562 10.359375 -5.328125 12.015625 -5.328125 C 13.160156 -5.328125 14.082031 -5.476562 14.78125 -5.78125 C 15.476562 -6.082031 15.984375 -6.492188 16.296875 -7.015625 C 16.617188 -7.546875 16.78125 -8.148438 16.78125 -8.828125 C 16.78125 -9.660156 16.5 -10.367188 15.9375 -10.953125 C 15.382812 -11.535156 14.617188 -12.082031 13.640625 -12.59375 C 12.671875 -13.113281 11.578125 -13.664062 10.359375 -14.25 C 9.597656 -14.613281 8.765625 -15.050781 7.859375 -15.5625 C 6.953125 -16.082031 6.09375 -16.71875 5.28125 -17.46875 C 4.46875 -18.226562 3.800781 -19.144531 3.28125 -20.21875 C 2.757812 -21.300781 2.5 -22.59375 2.5 -24.09375 C 2.5 -26.0625 2.953125 -27.742188 3.859375 -29.140625 C 4.765625 -30.546875 6.054688 -31.617188 7.734375 -32.359375 C 9.410156 -33.109375 11.394531 -33.484375 13.6875 -33.484375 C 15.40625 -33.484375 17.039062 -33.285156 18.59375 -32.890625 C 20.15625 -32.492188 21.785156 -31.921875 23.484375 -31.171875 L 21.234375 -25.71875 C 19.710938 -26.332031 18.347656 -26.8125 17.140625 -27.15625 C 15.929688 -27.5 14.703125 -27.671875 13.453125 -27.671875 C 12.585938 -27.671875 11.84375 -27.53125 11.21875 -27.25 C 10.601562 -26.96875 10.132812 -26.570312 9.8125 -26.0625 C 9.5 -25.5625 9.34375 -24.984375 9.34375 -24.328125 C 9.34375 -23.535156 9.570312 -22.875 10.03125 -22.34375 C 10.5 -21.8125 11.191406 -21.296875 12.109375 -20.796875 C 13.035156 -20.296875 14.191406 -19.71875 15.578125 -19.0625 C 17.265625 -18.257812 18.707031 -17.425781 19.90625 -16.5625 C 21.101562 -15.695312 22.023438 -14.679688 22.671875 -13.515625 C 23.316406 -12.347656 23.640625 -10.898438 23.640625 -9.171875 Z M 23.640625 -9.171875 "/></g></g><g transform="translate(36.972278, 120.403057)"><g><path d="M 16.890625 0 L 9.890625 0 L 9.890625 -27.1875 L 0.921875 -27.1875 L 0.921875 -33.015625 L 25.859375 -33.015625 L 25.859375 -27.1875 L 16.890625 -27.1875 Z M 16.890625 0 "/></g></g><g transform="translate(63.753018, 120.403057)"><g><path d="M 23.171875 0 L 4.15625 0 L 4.15625 -33.015625 L 23.171875 -33.015625 L 23.171875 -27.28125 L 11.15625 -27.28125 L 11.15625 -20.03125 L 22.328125 -20.03125 L 22.328125 -14.296875 L 11.15625 -14.296875 L 11.15625 -5.78125 L 23.171875 -5.78125 Z M 23.171875 0 "/></g></g><g transform="translate(89.653108, 120.403057)"><g><path d="M 18.140625 0 L 10.1875 -25.90625 L 9.984375 -25.90625 C 10.015625 -25.289062 10.0625 -24.359375 10.125 -23.109375 C 10.195312 -21.867188 10.257812 -20.546875 10.3125 -19.140625 C 10.375 -17.742188 10.40625 -16.484375 10.40625 -15.359375 L 10.40625 0 L 4.15625 0 L 4.15625 -33.015625 L 13.6875 -33.015625 L 21.5 -7.765625 L 21.640625 -7.765625 L 29.921875 -33.015625 L 39.453125 -33.015625 L 39.453125 0 L 32.921875 0 L 32.921875 -15.625 C 32.921875 -16.664062 32.9375 -17.863281 32.96875 -19.21875 C 33.007812 -20.570312 33.0625 -21.863281 33.125 -23.09375 C 33.1875 -24.320312 33.234375 -25.242188 33.265625 -25.859375 L 33.0625 -25.859375 L 24.546875 0 Z M 18.140625 0 "/></g></g></g><g fill="#000000" fill-opacity="1"><g transform="translate(11.501221, 183.990377)"><g><path d="M 18.171875 -27.671875 C 16.835938 -27.671875 15.65625 -27.410156 14.625 -26.890625 C 13.59375 -26.367188 12.722656 -25.617188 12.015625 -24.640625 C 11.316406 -23.660156 10.785156 -22.476562 10.421875 -21.09375 C 10.066406 -19.707031 9.890625 -18.148438 9.890625 -16.421875 C 9.890625 -14.085938 10.175781 -12.09375 10.75 -10.4375 C 11.332031 -8.789062 12.234375 -7.535156 13.453125 -6.671875 C 14.671875 -5.804688 16.242188 -5.375 18.171875 -5.375 C 19.515625 -5.375 20.859375 -5.523438 22.203125 -5.828125 C 23.554688 -6.128906 25.023438 -6.554688 26.609375 -7.109375 L 26.609375 -1.234375 C 25.140625 -0.640625 23.695312 -0.210938 22.28125 0.046875 C 20.875 0.316406 19.289062 0.453125 17.53125 0.453125 C 14.125 0.453125 11.320312 -0.25 9.125 -1.65625 C 6.9375 -3.0625 5.316406 -5.03125 4.265625 -7.5625 C 3.210938 -10.101562 2.6875 -13.070312 2.6875 -16.46875 C 2.6875 -18.96875 3.023438 -21.253906 3.703125 -23.328125 C 4.378906 -25.398438 5.375 -27.195312 6.6875 -28.71875 C 8 -30.238281 9.617188 -31.410156 11.546875 -32.234375 C 13.472656 -33.066406 15.679688 -33.484375 18.171875 -33.484375 C 19.816406 -33.484375 21.460938 -33.273438 23.109375 -32.859375 C 24.765625 -32.453125 26.34375 -31.890625 27.84375 -31.171875 L 25.59375 -25.46875 C 24.351562 -26.0625 23.109375 -26.578125 21.859375 -27.015625 C 20.609375 -27.453125 19.378906 -27.671875 18.171875 -27.671875 Z M 18.171875 -27.671875 "/></g></g><g transform="translate(40.969067, 183.990377)"><g><path d="M 17.703125 -25.71875 C 18.046875 -25.71875 18.445312 -25.695312 18.90625 -25.65625 C 19.375 -25.625 19.75 -25.578125 20.03125 -25.515625 L 19.515625 -19.0625 C 19.285156 -19.132812 18.960938 -19.1875 18.546875 -19.21875 C 18.140625 -19.257812 17.785156 -19.28125 17.484375 -19.28125 C 16.585938 -19.28125 15.722656 -19.164062 14.890625 -18.9375 C 14.054688 -18.71875 13.304688 -18.351562 12.640625 -17.84375 C 11.984375 -17.34375 11.460938 -16.679688 11.078125 -15.859375 C 10.691406 -15.046875 10.5 -14.039062 10.5 -12.84375 L 10.5 0 L 3.609375 0 L 3.609375 -25.25 L 8.828125 -25.25 L 9.84375 -21 L 10.1875 -21 C 10.6875 -21.863281 11.304688 -22.648438 12.046875 -23.359375 C 12.796875 -24.078125 13.644531 -24.648438 14.59375 -25.078125 C 15.550781 -25.503906 16.585938 -25.71875 17.703125 -25.71875 Z M 17.703125 -25.71875 "/></g></g><g transform="translate(61.96914, 183.990377)"><g><path d="M 14.03125 -25.71875 C 16.363281 -25.71875 18.367188 -25.269531 20.046875 -24.375 C 21.734375 -23.476562 23.035156 -22.179688 23.953125 -20.484375 C 24.878906 -18.785156 25.34375 -16.707031 25.34375 -14.25 L 25.34375 -10.90625 L 9.0625 -10.90625 C 9.132812 -8.96875 9.710938 -7.441406 10.796875 -6.328125 C 11.890625 -5.222656 13.410156 -4.671875 15.359375 -4.671875 C 16.960938 -4.671875 18.4375 -4.835938 19.78125 -5.171875 C 21.125 -5.503906 22.503906 -6 23.921875 -6.65625 L 23.921875 -1.328125 C 22.671875 -0.710938 21.363281 -0.265625 20 0.015625 C 18.632812 0.304688 16.984375 0.453125 15.046875 0.453125 C 12.515625 0.453125 10.269531 -0.0078125 8.3125 -0.9375 C 6.363281 -1.875 4.835938 -3.296875 3.734375 -5.203125 C 2.628906 -7.117188 2.078125 -9.53125 2.078125 -12.4375 C 2.078125 -15.394531 2.578125 -17.851562 3.578125 -19.8125 C 4.578125 -21.78125 5.972656 -23.253906 7.765625 -24.234375 C 9.554688 -25.222656 11.644531 -25.71875 14.03125 -25.71875 Z M 14.0625 -20.828125 C 12.726562 -20.828125 11.617188 -20.394531 10.734375 -19.53125 C 9.859375 -18.675781 9.351562 -17.328125 9.21875 -15.484375 L 18.875 -15.484375 C 18.863281 -16.515625 18.679688 -17.425781 18.328125 -18.21875 C 17.972656 -19.019531 17.441406 -19.65625 16.734375 -20.125 C 16.035156 -20.59375 15.144531 -20.828125 14.0625 -20.828125 Z M 14.0625 -20.828125 "/></g></g><g transform="translate(89.291817, 183.990377)"><g><path d="M 13.953125 -25.765625 C 17.335938 -25.765625 19.929688 -25.023438 21.734375 -23.546875 C 23.546875 -22.078125 24.453125 -19.835938 24.453125 -16.828125 L 24.453125 0 L 19.640625 0 L 18.3125 -3.4375 L 18.140625 -3.4375 C 17.410156 -2.53125 16.671875 -1.789062 15.921875 -1.21875 C 15.171875 -0.644531 14.304688 -0.222656 13.328125 0.046875 C 12.347656 0.316406 11.15625 0.453125 9.75 0.453125 C 8.257812 0.453125 6.921875 0.164062 5.734375 -0.40625 C 4.554688 -0.976562 3.628906 -1.851562 2.953125 -3.03125 C 2.273438 -4.21875 1.9375 -5.722656 1.9375 -7.546875 C 1.9375 -10.222656 2.878906 -12.195312 4.765625 -13.46875 C 6.648438 -14.738281 9.472656 -15.441406 13.234375 -15.578125 L 17.609375 -15.71875 L 17.609375 -16.828125 C 17.609375 -18.148438 17.257812 -19.117188 16.5625 -19.734375 C 15.875 -20.347656 14.914062 -20.65625 13.6875 -20.65625 C 12.46875 -20.65625 11.269531 -20.484375 10.09375 -20.140625 C 8.914062 -19.796875 7.742188 -19.359375 6.578125 -18.828125 L 4.296875 -23.484375 C 5.628906 -24.191406 7.128906 -24.75 8.796875 -25.15625 C 10.460938 -25.5625 12.179688 -25.765625 13.953125 -25.765625 Z M 17.609375 -11.703125 L 14.953125 -11.609375 C 12.722656 -11.546875 11.175781 -11.144531 10.3125 -10.40625 C 9.445312 -9.664062 9.015625 -8.695312 9.015625 -7.5 C 9.015625 -6.445312 9.320312 -5.695312 9.9375 -5.25 C 10.550781 -4.800781 11.359375 -4.578125 12.359375 -4.578125 C 13.828125 -4.578125 15.066406 -5.015625 16.078125 -5.890625 C 17.097656 -6.765625 17.609375 -8.007812 17.609375 -9.625 Z M 17.609375 -11.703125 "/></g></g><g transform="translate(117.224173, 183.990377)"><g><path d="M 14.25 -5.03125 C 15 -5.03125 15.734375 -5.101562 16.453125 -5.25 C 17.171875 -5.40625 17.878906 -5.597656 18.578125 -5.828125 L 18.578125 -0.703125 C 17.847656 -0.367188 16.9375 -0.09375 15.84375 0.125 C 14.75 0.34375 13.554688 0.453125 12.265625 0.453125 C 10.753906 0.453125 9.398438 0.207031 8.203125 -0.28125 C 7.003906 -0.769531 6.0625 -1.617188 5.375 -2.828125 C 4.695312 -4.046875 4.359375 -5.738281 4.359375 -7.90625 L 4.359375 -20.078125 L 1.0625 -20.078125 L 1.0625 -22.984375 L 4.859375 -25.296875 L 6.84375 -30.625 L 11.25 -30.625 L 11.25 -25.25 L 18.3125 -25.25 L 18.3125 -20.078125 L 11.25 -20.078125 L 11.25 -7.90625 C 11.25 -6.9375 11.519531 -6.210938 12.0625 -5.734375 C 12.613281 -5.265625 13.34375 -5.03125 14.25 -5.03125 Z M 14.25 -5.03125 "/></g></g><g transform="translate(137.298437, 183.990377)"><g><path d="M 10.5 -25.25 L 10.5 0 L 3.609375 0 L 3.609375 -25.25 Z M 7.0625 -35.140625 C 8.09375 -35.140625 8.972656 -34.898438 9.703125 -34.421875 C 10.441406 -33.953125 10.8125 -33.070312 10.8125 -31.78125 C 10.8125 -30.5 10.441406 -29.613281 9.703125 -29.125 C 8.972656 -28.632812 8.09375 -28.390625 7.0625 -28.390625 C 6.03125 -28.390625 5.144531 -28.632812 4.40625 -29.125 C 3.675781 -29.613281 3.3125 -30.5 3.3125 -31.78125 C 3.3125 -33.070312 3.675781 -33.953125 4.40625 -34.421875 C 5.144531 -34.898438 6.03125 -35.140625 7.0625 -35.140625 Z M 7.0625 -35.140625 "/></g></g><g transform="translate(151.41139, 183.990377)"><g><path d="M 9.625 0 L 0 -25.25 L 7.203125 -25.25 L 12.078125 -10.859375 C 12.347656 -10.015625 12.5625 -9.125 12.71875 -8.1875 C 12.882812 -7.257812 12.992188 -6.425781 13.046875 -5.6875 L 13.234375 -5.6875 C 13.273438 -6.488281 13.382812 -7.335938 13.5625 -8.234375 C 13.738281 -9.140625 13.96875 -10.015625 14.25 -10.859375 L 19.109375 -25.25 L 26.3125 -25.25 L 16.6875 0 Z M 9.625 0 "/></g></g><g transform="translate(177.717934, 183.990377)"><g><path d="M 14.03125 -25.71875 C 16.363281 -25.71875 18.367188 -25.269531 20.046875 -24.375 C 21.734375 -23.476562 23.035156 -22.179688 23.953125 -20.484375 C 24.878906 -18.785156 25.34375 -16.707031 25.34375 -14.25 L 25.34375 -10.90625 L 9.0625 -10.90625 C 9.132812 -8.96875 9.710938 -7.441406 10.796875 -6.328125 C 11.890625 -5.222656 13.410156 -4.671875 15.359375 -4.671875 C 16.960938 -4.671875 18.4375 -4.835938 19.78125 -5.171875 C 21.125 -5.503906 22.503906 -6 23.921875 -6.65625 L 23.921875 -1.328125 C 22.671875 -0.710938 21.363281 -0.265625 20 0.015625 C 18.632812 0.304688 16.984375 0.453125 15.046875 0.453125 C 12.515625 0.453125 10.269531 -0.0078125 8.3125 -0.9375 C 6.363281 -1.875 4.835938 -3.296875 3.734375 -5.203125 C 2.628906 -7.117188 2.078125 -9.53125 2.078125 -12.4375 C 2.078125 -15.394531 2.578125 -17.851562 3.578125 -19.8125 C 4.578125 -21.78125 5.972656 -23.253906 7.765625 -24.234375 C 9.554688 -25.222656 11.644531 -25.71875 14.03125 -25.71875 Z M 14.0625 -20.828125 C 12.726562 -20.828125 11.617188 -20.394531 10.734375 -19.53125 C 9.859375 -18.675781 9.351562 -17.328125 9.21875 -15.484375 L 18.875 -15.484375 C 18.863281 -16.515625 18.679688 -17.425781 18.328125 -18.21875 C 17.972656 -19.019531 17.441406 -19.65625 16.734375 -20.125 C 16.035156 -20.59375 15.144531 -20.828125 14.0625 -20.828125 Z M 14.0625 -20.828125 "/></g></g><g transform="translate(205.040611, 183.990377)"><g><path d="M 2.640625 -3.234375 C 2.640625 -4.648438 3.023438 -5.640625 3.796875 -6.203125 C 4.578125 -6.773438 5.515625 -7.0625 6.609375 -7.0625 C 7.679688 -7.0625 8.601562 -6.773438 9.375 -6.203125 C 10.15625 -5.640625 10.546875 -4.648438 10.546875 -3.234375 C 10.546875 -1.878906 10.15625 -0.898438 9.375 -0.296875 C 8.601562 0.304688 7.679688 0.609375 6.609375 0.609375 C 5.515625 0.609375 4.578125 0.304688 3.796875 -0.296875 C 3.023438 -0.898438 2.640625 -1.878906 2.640625 -3.234375 Z M 2.640625 -3.234375 "/></g></g></g></svg>