<svg xmlns="http://www.w3.org/2000/svg" xmlns:xlink="http://www.w3.org/1999/xlink" width="400" zoomAndPan="magnify" viewBox="0 0 300 299.999988" height="400" preserveAspectRatio="xMidYMid meet" version="1.0"><defs><g/></defs><rect x="-30" width="360" fill="#ffffff" y="-29.999999" height="359.999986" fill-opacity="1"/><rect x="-30" width="360" fill="#ffffff" y="-29.999999" height="359.999986" fill-opacity="1"/><g fill="#000000" fill-opacity="1"><g transform="translate(11.501221, 56.815727)"><g><path d="M 16.890625 0 L 9.890625 0 L 9.890625 -27.1875 L 0.921875 -27.1875 L 0.921875 -33.015625 L 25.859375 -33.015625 L 25.859375 -27.1875 L 16.890625 -27.1875 Z M 16.890625 0 "/></g></g><g transform="translate(38.28196, 56.815727)"><g><path d="M 10.5 -35.140625 L 10.5 -27.984375 C 10.5 -26.734375 10.457031 -25.539062 10.375 -24.40625 C 10.289062 -23.28125 10.226562 -22.484375 10.1875 -22.015625 L 10.546875 -22.015625 C 11.085938 -22.890625 11.726562 -23.597656 12.46875 -24.140625 C 13.21875 -24.679688 14.046875 -25.078125 14.953125 -25.328125 C 15.859375 -25.585938 16.828125 -25.71875 17.859375 -25.71875 C 19.679688 -25.71875 21.269531 -25.394531 22.625 -24.75 C 23.976562 -24.113281 25.03125 -23.113281 25.78125 -21.75 C 26.539062 -20.394531 26.921875 -18.632812 26.921875 -16.46875 L 26.921875 0 L 20.03125 0 L 20.03125 -14.75 C 20.03125 -16.550781 19.695312 -17.910156 19.03125 -18.828125 C 18.375 -19.753906 17.351562 -20.21875 15.96875 -20.21875 C 14.582031 -20.21875 13.488281 -19.894531 12.6875 -19.25 C 11.894531 -18.613281 11.332031 -17.671875 11 -16.421875 C 10.664062 -15.179688 10.5 -13.664062 10.5 -11.875 L 10.5 0 L 3.609375 0 L 3.609375 -35.140625 Z M 10.5 -35.140625 "/></g></g><g transform="translate(68.675615, 56.815727)"><g><path d="M 14.03125 -25.71875 C 16.363281 -25.71875 18.367188 -25.269531 20.046875 -24.375 C 21.734375 -23.476562 23.035156 -22.179688 23.953125 -20.484375 C 24.878906 -18.785156 25.34375 -16.707031 25.34375 -14.25 L 25.34375 -10.90625 L 9.0625 -10.90625 C 9.132812 -8.96875 9.710938 -7.441406 10.796875 -6.328125 C 11.890625 -5.222656 13.410156 -4.671875 15.359375 -4.671875 C 16.960938 -4.671875 18.4375 -4.835938 19.78125 -5.171875 C 21.125 -5.503906 22.503906 -6 23.921875 -6.65625 L 23.921875 -1.328125 C 22.671875 -0.710938 21.363281 -0.265625 20 0.015625 C 18.632812 0.304688 16.984375 0.453125 15.046875 0.453125 C 12.515625 0.453125 10.269531 -0.0078125 8.3125 -0.9375 C 6.363281 -1.875 4.835938 -3.296875 3.734375 -5.203125 C 2.628906 -7.117188 2.078125 -9.53125 2.078125 -12.4375 C 2.078125 -15.394531 2.578125 -17.851562 3.578125 -19.8125 C 4.578125 -21.78125 5.972656 -23.253906 7.765625 -24.234375 C 9.554688 -25.222656 11.644531 -25.71875 14.03125 -25.71875 Z M 14.0625 -20.828125 C 12.726562 -20.828125 11.617188 -20.394531 10.734375 -19.53125 C 9.859375 -18.675781 9.351562 -17.328125 9.21875 -15.484375 L 18.875 -15.484375 C 18.863281 -16.515625 18.679688 -17.425781 18.328125 -18.21875 C 17.972656 -19.019531 17.441406 -19.65625 16.734375 -20.125 C 16.035156 -20.59375 15.144531 -20.828125 14.0625 -20.828125 Z M 14.0625 -20.828125 "/></g></g></g><g fill="#000000" fill-opacity="1"><g transform="translate(11.501221, 120.403047)"><g><path d="M 14.703125 -33.015625 C 18.960938 -33.015625 22.070312 -32.097656 24.03125 -30.265625 C 25.988281 -28.441406 26.96875 -25.925781 26.96875 -22.71875 C 26.96875 -21.269531 26.75 -19.882812 26.3125 -18.5625 C 25.875 -17.25 25.160156 -16.082031 24.171875 -15.0625 C 23.191406 -14.039062 21.878906 -13.234375 20.234375 -12.640625 C 18.585938 -12.046875 16.5625 -11.75 14.15625 -11.75 L 11.15625 -11.75 L 11.15625 0 L 4.15625 0 L 4.15625 -33.015625 Z M 14.34375 -27.28125 L 11.15625 -27.28125 L 11.15625 -17.484375 L 13.453125 -17.484375 C 14.765625 -17.484375 15.898438 -17.65625 16.859375 -18 C 17.828125 -18.34375 18.570312 -18.882812 19.09375 -19.625 C 19.625 -20.363281 19.890625 -21.3125 19.890625 -22.46875 C 19.890625 -24.09375 19.4375 -25.300781 18.53125 -26.09375 C 17.632812 -26.882812 16.238281 -27.28125 14.34375 -27.28125 Z M 14.34375 -27.28125 "/></g></g><g transform="translate(40.540033, 120.403047)"><g><path d="M 14.03125 -25.71875 C 16.363281 -25.71875 18.367188 -25.269531 20.046875 -24.375 C 21.734375 -23.476562 23.035156 -22.179688 23.953125 -20.484375 C 24.878906 -18.785156 25.34375 -16.707031 25.34375 -14.25 L 25.34375 -10.90625 L 9.0625 -10.90625 C 9.132812 -8.96875 9.710938 -7.441406 10.796875 -6.328125 C 11.890625 -5.222656 13.410156 -4.671875 15.359375 -4.671875 C 16.960938 -4.671875 18.4375 -4.835938 19.78125 -5.171875 C 21.125 -5.503906 22.503906 -6 23.921875 -6.65625 L 23.921875 -1.328125 C 22.671875 -0.710938 21.363281 -0.265625 20 0.015625 C 18.632812 0.304688 16.984375 0.453125 15.046875 0.453125 C 12.515625 0.453125 10.269531 -0.0078125 8.3125 -0.9375 C 6.363281 -1.875 4.835938 -3.296875 3.734375 -5.203125 C 2.628906 -7.117188 2.078125 -9.53125 2.078125 -12.4375 C 2.078125 -15.394531 2.578125 -17.851562 3.578125 -19.8125 C 4.578125 -21.78125 5.972656 -23.253906 7.765625 -24.234375 C 9.554688 -25.222656 11.644531 -25.71875 14.03125 -25.71875 Z M 14.0625 -20.828125 C 12.726562 -20.828125 11.617188 -20.394531 10.734375 -19.53125 C 9.859375 -18.675781 9.351562 -17.328125 9.21875 -15.484375 L 18.875 -15.484375 C 18.863281 -16.515625 18.679688 -17.425781 18.328125 -18.21875 C 17.972656 -19.019531 17.441406 -19.65625 16.734375 -20.125 C 16.035156 -20.59375 15.144531 -20.828125 14.0625 -20.828125 Z M 14.0625 -20.828125 "/></g></g><g transform="translate(67.86271, 120.403047)"><g><path d="M 17.703125 -25.71875 C 18.046875 -25.71875 18.445312 -25.695312 18.90625 -25.65625 C 19.375 -25.625 19.75 -25.578125 20.03125 -25.515625 L 19.515625 -19.0625 C 19.285156 -19.132812 18.960938 -19.1875 18.546875 -19.21875 C 18.140625 -19.257812 17.785156 -19.28125 17.484375 -19.28125 C 16.585938 -19.28125 15.722656 -19.164062 14.890625 -18.9375 C 14.054688 -18.71875 13.304688 -18.351562 12.640625 -17.84375 C 11.984375 -17.34375 11.460938 -16.679688 11.078125 -15.859375 C 10.691406 -15.046875 10.5 -14.039062 10.5 -12.84375 L 10.5 0 L 3.609375 0 L 3.609375 -25.25 L 8.828125 -25.25 L 9.84375 -21 L 10.1875 -21 C 10.6875 -21.863281 11.304688 -22.648438 12.046875 -23.359375 C 12.796875 -24.078125 13.644531 -24.648438 14.59375 -25.078125 C 15.550781 -25.503906 16.585938 -25.71875 17.703125 -25.71875 Z M 17.703125 -25.71875 "/></g></g><g transform="translate(88.862783, 120.403047)"><g><path d="M 21.234375 -7.5 C 21.234375 -5.78125 20.828125 -4.328125 20.015625 -3.140625 C 19.210938 -1.960938 18.015625 -1.066406 16.421875 -0.453125 C 14.828125 0.148438 12.835938 0.453125 10.453125 0.453125 C 8.691406 0.453125 7.179688 0.335938 5.921875 0.109375 C 4.671875 -0.109375 3.40625 -0.484375 2.125 -1.015625 L 2.125 -6.703125 C 3.488281 -6.085938 4.957031 -5.578125 6.53125 -5.171875 C 8.101562 -4.773438 9.488281 -4.578125 10.6875 -4.578125 C 12.019531 -4.578125 12.976562 -4.773438 13.5625 -5.171875 C 14.144531 -5.578125 14.4375 -6.101562 14.4375 -6.75 C 14.4375 -7.175781 14.316406 -7.554688 14.078125 -7.890625 C 13.847656 -8.234375 13.347656 -8.617188 12.578125 -9.046875 C 11.804688 -9.472656 10.601562 -10.035156 8.96875 -10.734375 C 7.382812 -11.390625 6.082031 -12.054688 5.0625 -12.734375 C 4.050781 -13.410156 3.300781 -14.210938 2.8125 -15.140625 C 2.320312 -16.066406 2.078125 -17.242188 2.078125 -18.671875 C 2.078125 -21.003906 2.984375 -22.757812 4.796875 -23.9375 C 6.609375 -25.125 9.035156 -25.71875 12.078125 -25.71875 C 13.648438 -25.71875 15.144531 -25.5625 16.5625 -25.25 C 17.988281 -24.9375 19.453125 -24.429688 20.953125 -23.734375 L 18.875 -18.765625 C 17.625 -19.304688 16.445312 -19.75 15.34375 -20.09375 C 14.238281 -20.445312 13.113281 -20.625 11.96875 -20.625 C 10.957031 -20.625 10.195312 -20.488281 9.6875 -20.21875 C 9.175781 -19.945312 8.921875 -19.53125 8.921875 -18.96875 C 8.921875 -18.5625 9.050781 -18.195312 9.3125 -17.875 C 9.570312 -17.5625 10.082031 -17.210938 10.84375 -16.828125 C 11.601562 -16.453125 12.722656 -15.960938 14.203125 -15.359375 C 15.628906 -14.765625 16.867188 -14.148438 17.921875 -13.515625 C 18.984375 -12.878906 19.800781 -12.085938 20.375 -11.140625 C 20.945312 -10.203125 21.234375 -8.988281 21.234375 -7.5 Z M 21.234375 -7.5 "/></g></g><g transform="translate(111.849961, 120.403047)"><g><path d="M 26.5625 -12.671875 C 26.5625 -10.554688 26.273438 -8.6875 25.703125 -7.0625 C 25.140625 -5.4375 24.320312 -4.0625 23.25 -2.9375 C 22.175781 -1.820312 20.878906 -0.976562 19.359375 -0.40625 C 17.847656 0.164062 16.144531 0.453125 14.25 0.453125 C 12.46875 0.453125 10.835938 0.164062 9.359375 -0.40625 C 7.878906 -0.976562 6.59375 -1.820312 5.5 -2.9375 C 4.40625 -4.0625 3.5625 -5.4375 2.96875 -7.0625 C 2.375 -8.6875 2.078125 -10.554688 2.078125 -12.671875 C 2.078125 -15.472656 2.570312 -17.84375 3.5625 -19.78125 C 4.5625 -21.726562 5.976562 -23.203125 7.8125 -24.203125 C 9.644531 -25.210938 11.835938 -25.71875 14.390625 -25.71875 C 16.753906 -25.71875 18.847656 -25.210938 20.671875 -24.203125 C 22.503906 -23.203125 23.941406 -21.726562 24.984375 -19.78125 C 26.035156 -17.84375 26.5625 -15.472656 26.5625 -12.671875 Z M 9.09375 -12.671875 C 9.09375 -11.015625 9.273438 -9.617188 9.640625 -8.484375 C 10.003906 -7.359375 10.566406 -6.507812 11.328125 -5.9375 C 12.097656 -5.363281 13.101562 -5.078125 14.34375 -5.078125 C 15.5625 -5.078125 16.550781 -5.363281 17.3125 -5.9375 C 18.070312 -6.507812 18.628906 -7.359375 18.984375 -8.484375 C 19.335938 -9.617188 19.515625 -11.015625 19.515625 -12.671875 C 19.515625 -14.335938 19.335938 -15.722656 18.984375 -16.828125 C 18.628906 -17.941406 18.066406 -18.773438 17.296875 -19.328125 C 16.523438 -19.890625 15.523438 -20.171875 14.296875 -20.171875 C 12.472656 -20.171875 11.148438 -19.546875 10.328125 -18.296875 C 9.503906 -17.046875 9.09375 -15.171875 9.09375 -12.671875 Z M 9.09375 -12.671875 "/></g></g><g transform="translate(140.48232, 120.403047)"><g><path d="M 17.953125 -25.71875 C 20.648438 -25.71875 22.816406 -24.984375 24.453125 -23.515625 C 26.097656 -22.046875 26.921875 -19.695312 26.921875 -16.46875 L 26.921875 0 L 20.03125 0 L 20.03125 -14.75 C 20.03125 -16.550781 19.703125 -17.910156 19.046875 -18.828125 C 18.390625 -19.753906 17.363281 -20.21875 15.96875 -20.21875 C 13.851562 -20.21875 12.410156 -19.5 11.640625 -18.0625 C 10.878906 -16.632812 10.5 -14.570312 10.5 -11.875 L 10.5 0 L 3.609375 0 L 3.609375 -25.25 L 8.875 -25.25 L 9.796875 -22.015625 L 10.1875 -22.015625 C 10.726562 -22.890625 11.398438 -23.597656 12.203125 -24.140625 C 13.015625 -24.679688 13.910156 -25.078125 14.890625 -25.328125 C 15.878906 -25.585938 16.898438 -25.71875 17.953125 -25.71875 Z M 17.953125 -25.71875 "/></g></g><g transform="translate(170.875975, 120.403047)"><g><path d="M 13.953125 -25.765625 C 17.335938 -25.765625 19.929688 -25.023438 21.734375 -23.546875 C 23.546875 -22.078125 24.453125 -19.835938 24.453125 -16.828125 L 24.453125 0 L 19.640625 0 L 18.3125 -3.4375 L 18.140625 -3.4375 C 17.410156 -2.53125 16.671875 -1.789062 15.921875 -1.21875 C 15.171875 -0.644531 14.304688 -0.222656 13.328125 0.046875 C 12.347656 0.316406 11.15625 0.453125 9.75 0.453125 C 8.257812 0.453125 6.921875 0.164062 5.734375 -0.40625 C 4.554688 -0.976562 3.628906 -1.851562 2.953125 -3.03125 C 2.273438 -4.21875 1.9375 -5.722656 1.9375 -7.546875 C 1.9375 -10.222656 2.878906 -12.195312 4.765625 -13.46875 C 6.648438 -14.738281 9.472656 -15.441406 13.234375 -15.578125 L 17.609375 -15.71875 L 17.609375 -16.828125 C 17.609375 -18.148438 17.257812 -19.117188 16.5625 -19.734375 C 15.875 -20.347656 14.914062 -20.65625 13.6875 -20.65625 C 12.46875 -20.65625 11.269531 -20.484375 10.09375 -20.140625 C 8.914062 -19.796875 7.742188 -19.359375 6.578125 -18.828125 L 4.296875 -23.484375 C 5.628906 -24.191406 7.128906 -24.75 8.796875 -25.15625 C 10.460938 -25.5625 12.179688 -25.765625 13.953125 -25.765625 Z M 17.609375 -11.703125 L 14.953125 -11.609375 C 12.722656 -11.546875 11.175781 -11.144531 10.3125 -10.40625 C 9.445312 -9.664062 9.015625 -8.695312 9.015625 -7.5 C 9.015625 -6.445312 9.320312 -5.695312 9.9375 -5.25 C 10.550781 -4.800781 11.359375 -4.578125 12.359375 -4.578125 C 13.828125 -4.578125 15.066406 -5.015625 16.078125 -5.890625 C 17.097656 -6.765625 17.609375 -8.007812 17.609375 -9.625 Z M 17.609375 -11.703125 "/></g></g><g transform="translate(198.808331, 120.403047)"><g><path d="M 10.5 0 L 3.609375 0 L 3.609375 -35.140625 L 10.5 -35.140625 Z M 10.5 0 "/></g></g><g transform="translate(212.921284, 120.403047)"><g><path d="M 10.5 -25.25 L 10.5 0 L 3.609375 0 L 3.609375 -25.25 Z M 7.0625 -35.140625 C 8.09375 -35.140625 8.972656 -34.898438 9.703125 -34.421875 C 10.441406 -33.953125 10.8125 -33.070312 10.8125 -31.78125 C 10.8125 -30.5 10.441406 -29.613281 9.703125 -29.125 C 8.972656 -28.632812 8.09375 -28.390625 7.0625 -28.390625 C 6.03125 -28.390625 5.144531 -28.632812 4.40625 -29.125 C 3.675781 -29.613281 3.3125 -30.5 3.3125 -31.78125 C 3.3125 -33.070312 3.675781 -33.953125 4.40625 -34.421875 C 5.144531 -34.898438 6.03125 -35.140625 7.0625 -35.140625 Z M 7.0625 -35.140625 "/></g></g><g transform="translate(227.034237, 120.403047)"><g><path d="M 14.25 -5.03125 C 15 -5.03125 15.734375 -5.101562 16.453125 -5.25 C 17.171875 -5.40625 17.878906 -5.597656 18.578125 -5.828125 L 18.578125 -0.703125 C 17.847656 -0.367188 16.9375 -0.09375 15.84375 0.125 C 14.75 0.34375 13.554688 0.453125 12.265625 0.453125 C 10.753906 0.453125 9.398438 0.207031 8.203125 -0.28125 C 7.003906 -0.769531 6.0625 -1.617188 5.375 -2.828125 C 4.695312 -4.046875 4.359375 -5.738281 4.359375 -7.90625 L 4.359375 -20.078125 L 1.0625 -20.078125 L 1.0625 -22.984375 L 4.859375 -25.296875 L 6.84375 -30.625 L 11.25 -30.625 L 11.25 -25.25 L 18.3125 -25.25 L 18.3125 -20.078125 L 11.25 -20.078125 L 11.25 -7.90625 C 11.25 -6.9375 11.519531 -6.210938 12.0625 -5.734375 C 12.613281 -5.265625 13.34375 -5.03125 14.25 -5.03125 Z M 14.25 -5.03125 "/></g></g><g transform="translate(247.108501, 120.403047)"><g><path d="M 0 -25.25 L 7.546875 -25.25 L 12.3125 -11.046875 C 12.457031 -10.585938 12.582031 -10.125 12.6875 -9.65625 C 12.789062 -9.195312 12.878906 -8.71875 12.953125 -8.21875 C 13.035156 -7.71875 13.097656 -7.195312 13.140625 -6.65625 L 13.28125 -6.65625 C 13.375 -7.46875 13.5 -8.226562 13.65625 -8.9375 C 13.8125 -9.644531 14.007812 -10.347656 14.25 -11.046875 L 18.921875 -25.25 L 26.3125 -25.25 L 15.625 3.234375 C 14.976562 4.972656 14.132812 6.425781 13.09375 7.59375 C 12.0625 8.757812 10.867188 9.632812 9.515625 10.21875 C 8.171875 10.8125 6.691406 11.109375 5.078125 11.109375 C 4.296875 11.109375 3.617188 11.066406 3.046875 10.984375 C 2.472656 10.898438 1.984375 10.816406 1.578125 10.734375 L 1.578125 5.265625 C 1.898438 5.335938 2.300781 5.40625 2.78125 5.46875 C 3.257812 5.53125 3.765625 5.5625 4.296875 5.5625 C 5.253906 5.5625 6.078125 5.359375 6.765625 4.953125 C 7.460938 4.546875 8.046875 4 8.515625 3.3125 C 8.984375 2.625 9.351562 1.875 9.625 1.0625 L 10.03125 -0.1875 Z M 0 -25.25 "/></g></g></g><g fill="#000000" fill-opacity="1"><g transform="translate(11.501221, 183.990367)"><g><path d="M 31.203125 0 L 24.234375 0 L 24.234375 -14.25 L 11.15625 -14.25 L 11.15625 0 L 4.15625 0 L 4.15625 -33.015625 L 11.15625 -33.015625 L 11.15625 -20.078125 L 24.234375 -20.078125 L 24.234375 -33.015625 L 31.203125 -33.015625 Z M 31.203125 0 "/></g></g><g transform="translate(46.885217, 183.990367)"><g><path d="M 10.5 -25.25 L 10.5 0 L 3.609375 0 L 3.609375 -25.25 Z M 7.0625 -35.140625 C 8.09375 -35.140625 8.972656 -34.898438 9.703125 -34.421875 C 10.441406 -33.953125 10.8125 -33.070312 10.8125 -31.78125 C 10.8125 -30.5 10.441406 -29.613281 9.703125 -29.125 C 8.972656 -28.632812 8.09375 -28.390625 7.0625 -28.390625 C 6.03125 -28.390625 5.144531 -28.632812 4.40625 -29.125 C 3.675781 -29.613281 3.3125 -30.5 3.3125 -31.78125 C 3.3125 -33.070312 3.675781 -33.953125 4.40625 -34.421875 C 5.144531 -34.898438 6.03125 -35.140625 7.0625 -35.140625 Z M 7.0625 -35.140625 "/></g></g><g transform="translate(60.998169, 183.990367)"><g><path d="M 17.703125 -25.71875 C 18.046875 -25.71875 18.445312 -25.695312 18.90625 -25.65625 C 19.375 -25.625 19.75 -25.578125 20.03125 -25.515625 L 19.515625 -19.0625 C 19.285156 -19.132812 18.960938 -19.1875 18.546875 -19.21875 C 18.140625 -19.257812 17.785156 -19.28125 17.484375 -19.28125 C 16.585938 -19.28125 15.722656 -19.164062 14.890625 -18.9375 C 14.054688 -18.71875 13.304688 -18.351562 12.640625 -17.84375 C 11.984375 -17.34375 11.460938 -16.679688 11.078125 -15.859375 C 10.691406 -15.046875 10.5 -14.039062 10.5 -12.84375 L 10.5 0 L 3.609375 0 L 3.609375 -25.25 L 8.828125 -25.25 L 9.84375 -21 L 10.1875 -21 C 10.6875 -21.863281 11.304688 -22.648438 12.046875 -23.359375 C 12.796875 -24.078125 13.644531 -24.648438 14.59375 -25.078125 C 15.550781 -25.503906 16.585938 -25.71875 17.703125 -25.71875 Z M 17.703125 -25.71875 "/></g></g><g transform="translate(81.998243, 183.990367)"><g><path d="M 14.03125 -25.71875 C 16.363281 -25.71875 18.367188 -25.269531 20.046875 -24.375 C 21.734375 -23.476562 23.035156 -22.179688 23.953125 -20.484375 C 24.878906 -18.785156 25.34375 -16.707031 25.34375 -14.25 L 25.34375 -10.90625 L 9.0625 -10.90625 C 9.132812 -8.96875 9.710938 -7.441406 10.796875 -6.328125 C 11.890625 -5.222656 13.410156 -4.671875 15.359375 -4.671875 C 16.960938 -4.671875 18.4375 -4.835938 19.78125 -5.171875 C 21.125 -5.503906 22.503906 -6 23.921875 -6.65625 L 23.921875 -1.328125 C 22.671875 -0.710938 21.363281 -0.265625 20 0.015625 C 18.632812 0.304688 16.984375 0.453125 15.046875 0.453125 C 12.515625 0.453125 10.269531 -0.0078125 8.3125 -0.9375 C 6.363281 -1.875 4.835938 -3.296875 3.734375 -5.203125 C 2.628906 -7.117188 2.078125 -9.53125 2.078125 -12.4375 C 2.078125 -15.394531 2.578125 -17.851562 3.578125 -19.8125 C 4.578125 -21.78125 5.972656 -23.253906 7.765625 -24.234375 C 9.554688 -25.222656 11.644531 -25.71875 14.03125 -25.71875 Z M 14.0625 -20.828125 C 12.726562 -20.828125 11.617188 -20.394531 10.734375 -19.53125 C 9.859375 -18.675781 9.351562 -17.328125 9.21875 -15.484375 L 18.875 -15.484375 C 18.863281 -16.515625 18.679688 -17.425781 18.328125 -18.21875 C 17.972656 -19.019531 17.441406 -19.65625 16.734375 -20.125 C 16.035156 -20.59375 15.144531 -20.828125 14.0625 -20.828125 Z M 14.0625 -20.828125 "/></g></g><g transform="translate(109.32092, 183.990367)"><g><path d="M 2.640625 -3.234375 C 2.640625 -4.648438 3.023438 -5.640625 3.796875 -6.203125 C 4.578125 -6.773438 5.515625 -7.0625 6.609375 -7.0625 C 7.679688 -7.0625 8.601562 -6.773438 9.375 -6.203125 C 10.15625 -5.640625 10.546875 -4.648438 10.546875 -3.234375 C 10.546875 -1.878906 10.15625 -0.898438 9.375 -0.296875 C 8.601562 0.304688 7.679688 0.609375 6.609375 0.609375 C 5.515625 0.609375 4.578125 0.304688 3.796875 -0.296875 C 3.023438 -0.898438 2.640625 -1.878906 2.640625 -3.234375 Z M 2.640625 -3.234375 "/></g></g></g></svg>